<svg xmlns="http://www.w3.org/2000/svg" viewBox="0 0 136.17 188.46"><defs><style>.cls-1{fill:#fff;}</style></defs><title>bitcoin</title><g id="Слой_2" data-name="Слой 2"><g id="Слой_1-2" data-name="Слой 1"><path class="cls-1" d="M130.81,98.87Q124.24,90.38,111,87.21,127.86,78.59,125.83,58a29,29,0,0,0-4.13-13,26,26,0,0,0-9.35-8.83,51.73,51.73,0,0,0-12.79-5.1,101.65,101.65,0,0,0-15.86-2.54V0H66.25V27.75q-4.53,0-13.82.22V0H35V28.54q-3.74.11-11,.11L0,28.54V47.11H12.57q8.6,0,10.08,7.7V87.32a10.8,10.8,0,0,1,1.81.11H22.65V133q-.9,5.77-6.57,5.78H3.51L0,159.46H22.65c1.44,0,3.51,0,6.23.06s4.76.06,6.12.06v28.88H52.44V159.91q4.75.11,13.81.11v28.43H83.7V159.58a137.63,137.63,0,0,0,16.48-1.7A67.3,67.3,0,0,0,113.94,154a37.18,37.18,0,0,0,11-6.63,31.27,31.27,0,0,0,7.31-10.08,42.83,42.83,0,0,0,3.67-14.16q1.49-15.73-5.09-24.23Zm-78-50.51c.53,0,2,0,4.47-.05s4.49-.07,6.12-.12,3.81.06,6.56.28a62.71,62.71,0,0,1,7,.9,39.07,39.07,0,0,1,6.22,1.87,16.83,16.83,0,0,1,5.44,3.17A15.75,15.75,0,0,1,92,59.17a14.86,14.86,0,0,1,1.42,6.63,15.78,15.78,0,0,1-1,5.78,10.88,10.88,0,0,1-3.06,4.36A30.88,30.88,0,0,1,85.17,79a19.34,19.34,0,0,1-5.49,2.1c-2.23.52-4.17.94-5.84,1.24a47.59,47.59,0,0,1-6.22.62c-2.5.11-4.38.19-5.67.22s-3,0-5.27,0l-3.9-.05V48.35Zm47.63,77.13A16.05,16.05,0,0,1,97.63,130a15.68,15.68,0,0,1-4.47,3.39,38.11,38.11,0,0,1-5.38,2.38,43.12,43.12,0,0,1-6.28,1.58q-3.69.68-6.46,1t-6.63.46c-2.56.11-4.57.17-6,.17s-3.25,0-5.44-.06l-4.19-.05V100.56c.6,0,2.4,0,5.38-.12s5.42-.11,7.3-.11,4.49.11,7.82.34a66.08,66.08,0,0,1,8.38,1,55.37,55.37,0,0,1,7.42,2.1,21.42,21.42,0,0,1,6.52,3.45,17,17,0,0,1,4.19,5.21,15.12,15.12,0,0,1,1.7,7.25,15,15,0,0,1-1.08,5.78Zm0,0"/></g></g></svg>